<svg xmlns="http://www.w3.org/2000/svg" viewBox="0 0 32 32" fill="none">
  <rect width="32" height="32" rx="8" fill="#0A0F16"/>
  <rect x="0.5" y="0.5" width="31" height="31" rx="7.5" stroke="#1E293B" stroke-opacity="0.8"/>
  <path d="M16 6L24 10.5V19.5L16 24L8 19.5V10.5L16 6Z" stroke="#7C3AED" stroke-width="1.5" stroke-linejoin="round"/>
  <path d="M16 9L21.5 12V18L16 21L10.5 18V12L16 9Z" fill="url(#tf-glow)" fill-opacity="0.25" stroke="#8B5CF6" stroke-width="1.5"/>
  <path d="M16 6V15M16 15L24 10.5M16 15L8 10.5M16 15V24M16 15L21.5 18M16 15L10.5 18" stroke="#22D3EE" stroke-width="1.2" stroke-linecap="round"/>
  <circle cx="16" cy="15" r="2.5" fill="#38BDF8"/>
  <defs>
    <linearGradient id="tf-glow" x1="8" y1="6" x2="24" y2="24" gradientUnits="userSpaceOnUse">
      <stop stop-color="#8B5CF6"/>
      <stop offset="1" stop-color="#22D3EE"/>
    </linearGradient>
  </defs>
</svg>